<svg width="237" height="237" viewBox="0 0 237 237" fill="none" xmlns="http://www.w3.org/2000/svg">
<path d="M113.593 0.092851C178.751 -2.46687 233.679 48.2114 236.366 113.365C239.051 178.518 188.478 233.545 123.33 236.355C58.0043 239.175 2.79477 188.433 0.102192 123.102C-2.59041 57.7711 48.2563 2.65965 113.593 0.092851Z" fill="#CCEEE5"/>
<path d="M106.249 53.1808C109.655 52.9943 111.354 56.8676 112.84 59.4733C115.905 64.8471 117.567 71.6811 117.434 77.8673C117.309 87.8041 113.209 97.2771 106.051 104.17C90.329 119.157 67.2312 118.616 52.2657 102.857C51.4465 101.89 48.807 98.9133 49.386 97.3888C50.353 94.8423 52.993 93.7996 55.2212 95.7708C57.464 97.7548 59.6117 100.698 62.1497 102.463C64.2924 103.953 67.249 105.389 69.7615 106.259C77.5175 108.95 86.0302 108.404 93.3797 104.746C100.671 101.24 106.226 94.9246 108.773 87.2461C112.332 76.6241 109.952 67.3491 104.085 58.7218C102.414 56.2643 103.727 54.3986 106.249 53.1808Z" fill="#4A9A90"/>
<path d="M53.2913 70.7205C54.0673 70.638 54.849 70.629 55.6265 70.694C57.1748 70.8227 58.6005 71.587 59.5645 72.8052C63.0933 77.2395 51.8435 83.7502 48.6618 86.1955C45.9053 88.2207 44.2293 88.8482 43.455 84.4502C42.229 77.486 46.2848 71.855 53.2913 70.7205Z" fill="#4A9A90"/>
<path d="M89.5538 42.7149C92.0376 42.6032 98.4556 43.8332 98.5133 47.0062C97.4108 48.9414 89.3256 54.7344 87.1196 56.4372C77.0171 63.6287 76.0603 44.7972 89.5538 42.7149Z" fill="#4A9A90"/>
</svg>
